<svg width="48" height="50" viewBox="0 0 48 50" fill="none" xmlns="http://www.w3.org/2000/svg">
<g filter="url(#filter0_d)">
<path d="M37.5396 17.7824C36.275 17.7824 35.1621 18.3526 34.3443 19.2447C31.3345 16.973 27.2794 15.5107 22.7858 15.3543L25.1211 3.87622L32.557 5.69727C32.557 7.68386 34.0408 9.30256 35.8619 9.30256C37.7166 9.30256 39.2089 7.63787 39.2089 5.65128C39.2089 3.66469 37.725 2 35.8619 2C34.5635 2 33.4422 2.85534 32.8858 4.02338L24.6743 2.03679C24.2611 1.91723 23.8565 2.23913 23.7469 2.68979L21.1839 15.3451C16.7241 15.5474 12.711 17.0098 9.69282 19.2815C8.87504 18.3526 7.72002 17.7824 6.45541 17.7824C1.76792 17.7824 0.23352 24.6435 4.52477 26.9887C4.37302 27.7153 4.30557 28.4879 4.30557 29.2604C4.30557 36.9677 12.2642 43.2126 22.0354 43.2126C31.8488 43.2126 39.8074 36.9677 39.8074 29.2604C39.8074 28.4879 39.7316 27.6785 39.5461 26.9519C43.753 24.5975 42.2018 17.7824 37.5396 17.7824ZM11.3284 27.4762C11.3284 25.4528 12.8122 23.8249 14.6754 23.8249C16.4964 23.8249 17.9802 25.4436 17.9802 27.4762C17.9802 29.4628 16.4964 31.0815 14.6754 31.0815C12.8206 31.0907 11.3284 29.4628 11.3284 27.4762ZM29.3955 36.0755C26.3267 39.4233 17.6683 39.4233 14.5995 36.0755C14.2623 35.7536 14.2623 35.1834 14.5995 34.8155C14.8946 34.4936 15.4173 34.4936 15.7124 34.8155C18.0561 37.4367 25.8293 37.4827 28.2742 34.8155C28.5693 34.4936 29.092 34.4936 29.387 34.8155C29.7327 35.1834 29.7327 35.7536 29.3955 36.0755ZM29.328 31.0907C27.507 31.0907 26.0232 29.472 26.0232 27.4854C26.0232 25.462 27.507 23.8341 29.328 23.8341C31.1828 23.8341 32.675 25.4528 32.675 27.4854C32.6666 29.4628 31.1828 31.0907 29.328 31.0907Z" fill="white"/>
</g>
<defs>
<filter id="filter0_d" x="0" y="0" width="48" height="49.2126" filterUnits="userSpaceOnUse" color-interpolation-filters="sRGB">
<feFlood flood-opacity="0" result="BackgroundImageFix"/>
<feColorMatrix in="SourceAlpha" type="matrix" values="0 0 0 0 0 0 0 0 0 0 0 0 0 0 0 0 0 0 127 0" result="hardAlpha"/>
<feOffset dx="2" dy="2"/>
<feGaussianBlur stdDeviation="2"/>
<feColorMatrix type="matrix" values="0 0 0 0 0 0 0 0 0 0 0 0 0 0 0 0 0 0 0.25 0"/>
<feBlend mode="normal" in2="BackgroundImageFix" result="effect1_dropShadow"/>
<feBlend mode="normal" in="SourceGraphic" in2="effect1_dropShadow" result="shape"/>
</filter>
</defs>
</svg>
