<svg width="48" height="48" viewBox="0 0 48 48" fill="none" xmlns="http://www.w3.org/2000/svg">
<g filter="url(#filter0_d)">
<path d="M36.0089 7.8125C32.2679 4.0625 27.2857 2 21.9911 2C11.0625 2 2.16964 10.8929 2.16964 21.8214C2.16964 25.3125 3.08036 28.7232 4.8125 31.7321L2 42L12.5089 39.2411C15.4018 40.8214 18.6607 41.6518 21.9821 41.6518H21.9911C32.9107 41.6518 42 32.7589 42 21.8304C42 16.5357 39.75 11.5625 36.0089 7.8125ZM21.9911 38.3125C19.0268 38.3125 16.125 37.5179 13.5982 36.0179L13 35.6607L6.76786 37.2946L8.42857 31.2143L8.03571 30.5893C6.38393 27.9643 5.51786 24.9375 5.51786 21.8214C5.51786 12.7411 12.9107 5.34821 22 5.34821C26.4018 5.34821 30.5357 7.0625 33.6429 10.1786C36.75 13.2946 38.6607 17.4286 38.6518 21.8304C38.6518 30.9196 31.0714 38.3125 21.9911 38.3125ZM31.0268 25.9732C30.5357 25.7232 28.0982 24.5268 27.6429 24.3661C27.1875 24.1964 26.8571 24.1161 26.5268 24.6161C26.1964 25.1161 25.25 26.2232 24.9554 26.5625C24.6696 26.8929 24.375 26.9375 23.8839 26.6875C20.9732 25.2321 19.0625 24.0893 17.1429 20.7946C16.6339 19.9196 17.6518 19.9821 18.5982 18.0893C18.7589 17.7589 18.6786 17.4732 18.5536 17.2232C18.4286 16.9732 17.4375 14.5357 17.0268 13.5446C16.625 12.5804 16.2143 12.7143 15.9107 12.6964C15.625 12.6786 15.2946 12.6786 14.9643 12.6786C14.6339 12.6786 14.0982 12.8036 13.6429 13.2946C13.1875 13.7946 11.9107 14.9911 11.9107 17.4286C11.9107 19.8661 13.6875 22.2232 13.9286 22.5536C14.1786 22.8839 17.4196 27.8839 22.3929 30.0357C25.5357 31.3929 26.7679 31.5089 28.3393 31.2768C29.2946 31.1339 31.2679 30.0804 31.6786 28.9196C32.0893 27.7589 32.0893 26.7679 31.9643 26.5625C31.8482 26.3393 31.5179 26.2143 31.0268 25.9732Z" fill="white"/>
</g>
<defs>
<filter id="filter0_d" x="0" y="0" width="48" height="48" filterUnits="userSpaceOnUse" color-interpolation-filters="sRGB">
<feFlood flood-opacity="0" result="BackgroundImageFix"/>
<feColorMatrix in="SourceAlpha" type="matrix" values="0 0 0 0 0 0 0 0 0 0 0 0 0 0 0 0 0 0 127 0" result="hardAlpha"/>
<feOffset dx="2" dy="2"/>
<feGaussianBlur stdDeviation="2"/>
<feColorMatrix type="matrix" values="0 0 0 0 0 0 0 0 0 0 0 0 0 0 0 0 0 0 0.25 0"/>
<feBlend mode="normal" in2="BackgroundImageFix" result="effect1_dropShadow"/>
<feBlend mode="normal" in="SourceGraphic" in2="effect1_dropShadow" result="shape"/>
</filter>
</defs>
</svg>
